<svg height="492pt" viewBox="-34 0 492 492" width="492pt" xmlns="http://www.w3.org/2000/svg"><path d="m357.035156 12.890625c-3.527344-1.25-7.238281-1.890625-10.980468-1.890625-18.871094 0-34.222657 15.972656-34.222657 35.609375v108.027344h21.960938v-108.027344c0-15.640625 9.742187-28.945313 23.242187-33.71875zm0 0" fill="#d4e1f4"/><path d="m71.957031 416.925781c-2.402343-2.023437-5.910156-2.023437-8.308593 0l-6.933594 5.765625 25.300781 21.054688 11.085937-9.226563zm0 0" fill="#d4e1f4"/><path d="m34.03125 53.222656c0-23.320312 18.234375-42.296875 40.652344-42.296875h-22.175782c-22.414062 0-40.652343 18.972657-40.652343 42.296875v383.976563l22.175781-18.453125zm0 0" fill="#d4e1f4"/><path d="m144.71875 416.925781c-2.398438-2.023437-5.910156-2.023437-8.308594 0l-6.933594 5.769531 25.292969 21.050782 11.085938-9.226563zm0 0" fill="#d4e1f4"/><g fill="#0635c9"><path d="m3.402344 453.601562c2.078125.996094 4.542968.71875 6.34375-.722656l33.65625-26.917968 33.652344 26.917968c2.191406 1.753906 5.308593 1.753906 7.5 0l33.648437-26.917968 33.648437 26.917968c2.191407 1.753906 5.308594 1.753906 7.5 0l37.398438-29.917968c.082031-.066407.160156-.132813.234375-.199219l5.320313-4.71875-7.964844-8.976563-5.203125 4.621094-33.527344 26.820312-33.644531-26.917968c-2.191406-1.753906-5.308594-1.753906-7.5 0l-33.648438 26.917968-33.667968-26.917968c-2.191407-1.753906-5.304688-1.753906-7.5 0l-27.648438 22.121094v-381.085938c.027344-23.53125 19.09375-42.597656 42.625-42.625h261.066406c-10.503906 9.164062-16.527344 22.417969-16.527344 36.355469v210.9375h12v-93.335938h78.714844c3.3125 0 6-2.683593 6-6v-111.601562c-.03125-25.792969-20.277344-47.03125-46.039062-48.3007815v-.0546875h-295.214844c-30.152344.0351562-54.5898438 24.472656-54.625 54.625v393.566406c0 2.308594 1.320312 4.410156 3.402344 5.410156zm380.476562-405.246093v105.601562h-72.714844v-105.601562c.105469-20.003907 16.351563-36.164063 36.355469-36.164063 20.007813 0 36.253907 16.160156 36.359375 36.164063zm0 0"/><path d="m44.820312 203.464844h2.671876c3.316406 0 6-2.6875 6-6s-2.683594-6-6-6h-2.671876c-3.3125 0-6 2.6875-6 6s2.6875 6 6 6zm0 0"/><path d="m94.386719 191.464844h-20.203125c-3.3125 0-6 2.6875-6 6s2.6875 6 6 6h20.203125c3.316406 0 6-2.6875 6-6s-2.683594-6-6-6zm0 0"/><path d="m272.34375 197.464844c0-3.3125-2.6875-6-6-6h-144.835938c-3.316406 0-6 2.6875-6 6s2.683594 6 6 6h144.835938c3.3125 0 6-2.6875 6-6zm0 0"/><path d="m44.820312 146.480469h2.671876c3.316406 0 6-2.6875 6-6s-2.683594-6-6-6h-2.671876c-3.3125 0-6 2.6875-6 6s2.6875 6 6 6zm0 0"/><path d="m94.386719 134.480469h-20.203125c-3.3125 0-6 2.6875-6 6s2.6875 6 6 6h20.203125c3.316406 0 6-2.6875 6-6s-2.683594-6-6-6zm0 0"/><path d="m266.34375 134.480469h-144.835938c-3.316406 0-6 2.6875-6 6s2.683594 6 6 6h144.835938c3.3125 0 6-2.6875 6-6s-2.6875-6-6-6zm0 0"/><path d="m44.820312 89.5h2.671876c3.316406 0 6-2.6875 6-6s-2.683594-6-6-6h-2.671876c-3.3125 0-6 2.6875-6 6s2.6875 6 6 6zm0 0"/><path d="m94.386719 77.5h-20.203125c-3.3125 0-6 2.6875-6 6s2.6875 6 6 6h20.203125c3.316406 0 6-2.6875 6-6s-2.683594-6-6-6zm0 0"/><path d="m266.34375 77.5h-144.835938c-3.316406 0-6 2.6875-6 6s2.683594 6 6 6h144.835938c3.3125 0 6-2.6875 6-6s-2.6875-6-6-6zm0 0"/><path d="m44.820312 260.449219h2.671876c3.316406 0 6-2.6875 6-6 0-3.316407-2.683594-6-6-6h-2.671876c-3.3125 0-6 2.683593-6 6 0 3.3125 2.6875 6 6 6zm0 0"/><path d="m100.386719 254.449219c0-3.316407-2.683594-6-6-6h-20.203125c-3.3125 0-6 2.683593-6 6 0 3.3125 2.6875 6 6 6h20.203125c3.316406 0 6-2.6875 6-6zm0 0"/><path d="m215.359375 254.449219c0-3.316407-2.6875-6-6-6h-87.851563c-3.316406 0-6 2.683593-6 6 0 3.3125 2.683594 6 6 6h87.851563c3.3125 0 6-2.6875 6-6zm0 0"/><path d="m61.8125 322.550781c6.070312.003907 10.988281 4.921875 10.992188 10.988281 0 3.316407 2.6875 6 6 6s6-2.683593 6-6c-.015626-10.378906-6.972657-19.46875-16.992188-22.191406v-4.132812c0-3.316406-2.683594-6-6-6-3.3125 0-6 2.683594-6 6v4.132812c-11.128906 3.007813-18.308594 13.792969-16.789062 25.21875 1.515624 11.429688 11.261718 19.964844 22.789062 19.964844 6.070312-.035156 11.015625 4.859375 11.050781 10.925781.03125 6.070313-4.859375 11.015625-10.929687 11.050781-.039063 0-.078125-.007812-.121094-.007812-.039062 0-.078125 0-.121094.007812-6.019531-.070312-10.863281-4.964843-10.871094-10.984374 0-3.316407-2.6875-6-6-6s-6 2.683593-6 6c.011719 10.378906 6.972657 19.46875 16.992188 22.191406v4.90625c0 3.316406 2.683594 6 6 6 3.3125 0 6-2.683594 6-6v-4.90625c11.125-3.007813 18.304688-13.792969 16.789062-25.21875-1.519531-11.429688-11.261718-19.964844-22.789062-19.964844-6.070312 0-10.992188-4.921875-10.992188-10.992188 0-6.070312 4.921876-10.988281 10.992188-10.988281zm0 0"/><path d="m116.472656 363.226562c-3.3125 0-6 2.6875-6 6s2.6875 6 6 6h50.71875c3.3125 0 6-2.6875 6-6s-2.6875-6-6-6zm0 0"/></g><path d="m304.472656 492c66.257813 0 119.964844-53.710938 119.964844-119.96875 0-66.253906-53.710938-119.964844-119.964844-119.964844-66.257812 0-119.96875 53.710938-119.96875 119.964844.074219 66.226562 53.742188 119.894531 119.96875 119.96875zm0-227.933594c59.628906 0 107.964844 48.339844 107.964844 107.96875 0 59.625-48.335938 107.964844-107.964844 107.964844s-107.96875-48.339844-107.96875-107.96875c.070313-59.597656 48.367188-107.898438 107.96875-107.964844zm0 0" fill="#1ae5be"/><path d="m277.953125 407.234375c2.117187 2.476563 5.820313 2.8125 8.347656.757813l76.957031-62.609376c2.542969-2.097656 2.917969-5.855468.835938-8.414062-2.078125-2.558594-5.835938-2.957031-8.40625-.894531l-72.414062 58.910156-29.238282-34.238281c-1.390625-1.644532-3.550781-2.417969-5.664062-2.027344-2.117188.386719-3.863282 1.878906-4.578125 3.90625-.714844 2.027344-.289063 4.285156 1.117187 5.914062zm0 0" fill="#1ae5be"/></svg>