<svg id="Layer_1" height="512" viewBox="0 0 512 512" width="512" xmlns="http://www.w3.org/2000/svg" data-name="Layer 1"><path d="m381.47 369.62a4 4 0 0 0 -4 4v86.86h25v-90.86z" fill="#d4e1f4"/><path d="m289.55 314.55v145.93h25v-149.93h-21a4 4 0 0 0 -4 4z" fill="#d4e1f4"/><path d="m198.63 274.12v186.36h25v-190.36h-21a4.005 4.005 0 0 0 -4 4z" fill="#d4e1f4"/><path d="m107.72 195.21v265.27h25v-269.27h-21a4 4 0 0 0 -4 4z" fill="#d4e1f4"/><g fill="#0635c9"><path d="m330.66 304.55h-37.11a10.011 10.011 0 0 0 -10 10v145.93h12v-143.93h33.11v143.93h12v-145.93a10.011 10.011 0 0 0 -10-10z"/><path d="m239.74 264.12h-37.11a10.011 10.011 0 0 0 -10 10v186.36h12v-184.36h33.11v184.36h12v-186.36a10.011 10.011 0 0 0 -10-10z"/><path d="m148.82 185.21h-37.1a10.011 10.011 0 0 0 -10 10v265.27h12v-263.27h33.1v263.27h12v-265.27a10.011 10.011 0 0 0 -10-10z"/><path d="m418.57 363.62h-37.1a10.011 10.011 0 0 0 -10 10v86.86h12v-84.86h33.1v84.86h12v-86.86a10.011 10.011 0 0 0 -10-10z"/><path d="m306.177 18.487a6 6 0 0 0 -10.354 0l-54.311 92.713a68.943 68.943 0 0 0 108.241 83.593 68.987 68.987 0 0 0 10.734-83.593zm35.089 167.821a56.943 56.943 0 0 1 -89.4-69.045l49.134-83.873 49.133 83.872a56.981 56.981 0 0 1 -8.867 69.046z"/><path d="m338.716 148.36a6 6 0 0 0 -7.076 4.684 29.022 29.022 0 0 1 -7.933 14.784 29.575 29.575 0 0 1 -5.231 4.154 28.961 28.961 0 0 1 -5.84 2.775 6 6 0 1 0 3.908 11.346 41.083 41.083 0 0 0 8.276-3.935 41.612 41.612 0 0 0 7.372-5.856 40.978 40.978 0 0 0 11.208-20.876 6 6 0 0 0 -4.684-7.076z"/></g><path d="m458.42 454.48h-383.84v-327.753l91.589 16.835 83.352 95.9a6.006 6.006 0 0 0 2.943 1.85l148.14 40.6-32.638 20.98a6 6 0 1 0 6.488 10.094l41.293-26.542a9.59 9.59 0 0 0 2.769-13.22l-28.51-44.93a6 6 0 0 0 -10.132 6.43l22.326 35.184-144.813-39.685-83.538-96.123a6.007 6.007 0 0 0 -3.444-1.965l-95.825-17.609v-39.876a21 21 0 1 0 -42 0v415.83a6 6 0 0 0 6 6h419.84a21.021 21.021 0 0 0 21-21 21.024 21.024 0 0 0 -21-21zm6.35 27.365a8.9 8.9 0 0 1 -6.35 2.635h-413.84v-409.83a9 9 0 1 1 18 0v385.83a6 6 0 0 0 6 6h389.84a9.01 9.01 0 0 1 9 9 8.916 8.916 0 0 1 -2.65 6.365z" fill="#1ae5be"/></svg>